<svg xmlns="http://www.w3.org/2000/svg" data-name="Layer 1" viewBox="0 0 512 512"><path fill="#2c2b2d" d="M397.5,137.11133a7.50082,7.50082,0,0,1-5.94043-2.9209c-1.09473-1.4209-11.18848-13.88574-28.14551-14.08008a7.49976,7.49976,0,0,1,.084-14.999c.02929,0,.05859,0,.08789.001A51.4603,51.4603,0,0,1,397.5,118.72754a51.4603,51.4603,0,0,1,33.91406-13.61524c.0293-.001.0586-.001.08789-.001a7.49976,7.49976,0,0,1,.084,14.999c-16.957.19434-27.05078,12.65918-28.14551,14.08008A7.50082,7.50082,0,0,1,397.5,137.11133Z"/><path fill="#e0e0e2" d="M471.7118,253.70227a53.80928,53.80928,0,0,0-96.95857-43.17611,51.12444,51.12444,0,0,0-67.65016,41.85867A45.49623,45.49623,0,0,0,268.75,297.34844v.00011a45.46987,45.46987,0,0,0,45.4241,45.5155H458.8259a45.46987,45.46987,0,0,0,45.4241-45.5155v-.00011A45.51442,45.51442,0,0,0,471.7118,253.70227Z"/><path fill="#2c2b2d" d="M458.82617,350.36426H314.17383A53.03516,53.03516,0,0,1,300.59375,246.0918a58.63246,58.63246,0,0,1,71.22949-44.25586,61.12068,61.12068,0,0,1,48.59864-22.89844c32.88671.44531,60.00488,27.61133,60.45117,60.55762a61.975,61.975,0,0,1-.58594,9.39746,53.02728,53.02728,0,0,1-21.46094,101.47168ZM357.834,215.14355a43.73628,43.73628,0,0,0-43.29,38.18458,7.50207,7.50207,0,0,1-6.28028,6.46679,38.02373,38.02373,0,0,0,5.91016,75.56934H458.82617A38.02732,38.02732,0,0,0,469.583,260.89355a7.5006,7.5006,0,0,1-5.13965-9.041,46.45928,46.45928,0,0,0-44.22461-57.917A46.02633,46.02633,0,0,0,381.001,214.6748a7.4943,7.4943,0,0,1-8.7334,2.92774A43.44319,43.44319,0,0,0,357.834,215.14355Z"/><path fill="#2c2b2d" d="M387.07813 223.63672a7.46467 7.46467 0 0 1-3.97559-1.14551 43.38275 43.38275 0 0 0-10.49707-4.77344 7.49958 7.49958 0 1 1 4.334-14.35937 58.35027 58.35027 0 0 1 14.12793 6.42187 7.50056 7.50056 0 0 1-3.98925 13.85645zM464.41016 278.12012a7.50133 7.50133 0 0 1-6.24024-11.65137 43.51012 43.51012 0 0 0 6.22852-14.53711 7.49972 7.49972 0 1 1 14.63086 3.30469 58.435 58.435 0 0 1-8.36524 19.5332A7.493 7.493 0 0 1 464.41016 278.12012z"/><path fill="#e0e0e2" d="M258.97448,260.09946a67.02209,67.02209,0,0,0,2.05763-17.45975c-.48754-35.92135-29.82066-65.31494-65.66992-65.80066a66.48905,66.48905,0,0,0-56.40225,29.81737,63.28144,63.28144,0,0,0-83.73683,51.81232A56.31488,56.31488,0,0,0,7.75,314.12434v.00013a56.28224,56.28224,0,0,0,56.22559,56.33872H243.02441A56.28224,56.28224,0,0,0,299.25,314.12447v-.00013A56.33738,56.33738,0,0,0,258.97448,260.09946Z"/><path fill="#2c2b2d" d="M243.02441,377.96289H63.97559A63.85373,63.85373,0,0,1,48.6748,252.14551a70.7882,70.7882,0,0,1,87.34083-54.23145A73.79261,73.79261,0,0,1,194.44531,169.333c.33985,0,.67774.00195,1.01856.00683,39.749.53907,72.52734,33.376,73.06738,73.19825a74.74146,74.74146,0,0,1-.9082,12.69921,63.85386,63.85386,0,0,1-24.59864,122.72559Zm-125.00683-167.375a55.9262,55.9262,0,0,0-55.35449,48.82422,7.499,7.499,0,0,1-6.2793,6.46582,48.84913,48.84913,0,0,0,7.5918,97.085H243.02441A48.85283,48.85283,0,0,0,256.8457,267.291a7.50062,7.50062,0,0,1-5.13965-9.041,59.635,59.635,0,0,0,1.82715-15.50879c-.43164-31.77344-26.57226-57.97266-58.27246-58.40332-.27051-.00293-.542-.00488-.8125-.00488A58.9067,58.9067,0,0,0,145.208,210.80469a7.49863,7.49863,0,0,1-8.7334,2.92773A55.55566,55.55566,0,0,0,118.01758,210.58789Z"/><path fill="#2c2b2d" d="M154.2168 221.10156a7.46289 7.46289 0 0 1-3.97657-1.14648 55.50061 55.50061 0 0 0-13.42285-6.10449 7.49959 7.49959 0 0 1 4.334-14.35938 70.39681 70.39681 0 0 1 17.05566 7.75488 7.5007 7.5007 0 0 1-3.99023 13.85547zM55.0752 265.98633A7.50063 7.50063 0 0 1 53.64648 251.124a70.48122 70.48122 0 0 1 18.70313-1.10742 7.5 7.5 0 0 1-1.10938 14.959 55.58231 55.58231 0 0 0-14.7207.87109A7.52792 7.52792 0 0 1 55.0752 265.98633zM249.9375 288.54a7.50111 7.50111 0 0 1-6.24023-11.65234 55.59068 55.59068 0 0 0 7.96484-18.5879 7.49993 7.49993 0 0 1 14.63086 3.30665 70.55463 70.55463 0 0 1-10.10254 23.584A7.49153 7.49153 0 0 1 249.9375 288.54z"/><path fill="#d9d8da" d="M374.75738,366.77894A55.89036,55.89036,0,0,0,274.04892,321.933a53.1017,53.1017,0,0,0-70.26654,43.47756A47.2558,47.2558,0,0,0,163.946,412.11313v.00012a47.22843,47.22843,0,0,0,47.18089,47.27582H361.37311A47.22843,47.22843,0,0,0,408.554,412.11325v-.00012A47.2747,47.2747,0,0,0,374.75738,366.77894Z"/><path fill="#2c2b2d" d="M361.37305,466.88867H211.127a54.79593,54.79593,0,0,1-13.86132-107.77929,60.60658,60.60658,0,0,1,73.85058-45.876,63.04218,63.04218,0,0,1,50.36328-23.82031c34.00293.46,62.042,28.54785,62.50391,62.61328a64.22042,64.22042,0,0,1-.63672,9.93261,54.78826,54.78826,0,0,1-21.97363,104.92969ZM256.47559,326.43848a45.72118,45.72118,0,0,0-45.25293,39.915,7.499,7.499,0,0,1-6.2793,6.46582,39.78473,39.78473,0,0,0,6.18359,79.06933h150.2461a39.78757,39.78757,0,0,0,11.25586-77.918,7.49954,7.49954,0,0,1-5.13965-9.04,48.87864,48.87864,0,0,0,1.49609-12.70117c-.35351-26.01562-21.75586-47.46679-47.709-47.81836-.22168-.00293-.44434-.0039-.665-.0039a48.22836,48.22836,0,0,0-40.31445,21.67382,7.49556,7.49556,0,0,1-8.73243,2.92774A45.45491,45.45491,0,0,0,256.47559,326.43848Z"/><path fill="#2c2b2d" d="M286.85059 335.26074a7.47032 7.47032 0 0 1-3.97657-1.14551 45.30748 45.30748 0 0 0-10.97168-4.99023 7.49958 7.49958 0 1 1 4.334-14.35937 60.298 60.298 0 0 1 14.60351 6.63867 7.50056 7.50056 0 0 1-3.98925 13.85644zM203.76563 372.919a7.50036 7.50036 0 0 1-1.40528-14.86622 60.3015 60.3015 0 0 1 16.01465-.90039 7.49971 7.49971 0 0 1-1.15234 14.95508 45.39721 45.39721 0 0 0-12.03614.67578A7.51645 7.51645 0 0 1 203.76563 372.919zM367.17285 391.85156a7.50131 7.50131 0 0 1-6.24023-11.65136 45.50479 45.50479 0 0 0 6.51172-15.19727 7.49993 7.49993 0 0 1 14.63086 3.30664 60.43129 60.43129 0 0 1-8.64844 20.19141A7.493 7.493 0 0 1 367.17285 391.85156zM146.5 77.11133a7.50082 7.50082 0 0 1-5.94043-2.9209c-1.09473-1.4209-11.18848-13.88574-28.14551-14.08008a7.49976 7.49976 0 0 1 .084-14.999c.02929 0 .05859 0 .08789.001A51.4603 51.4603 0 0 1 146.5 58.72754 51.4603 51.4603 0 0 1 180.41406 45.1123c.0293-.001.0586-.001.08789-.001a7.49976 7.49976 0 0 1 .084 14.999c-16.957.19434-27.05078 12.65918-28.14551 14.08008A7.50082 7.50082 0 0 1 146.5 77.11133z"/></svg>