<svg xmlns="http://www.w3.org/2000/svg" viewBox="0 0 24 24"><path fill="#303C42" d="M2.589 20.216C2.262 20.69 1.5 21.86 1.5 22.5c0 .827.673 1.5 1.5 1.5s1.5-.673 1.5-1.5c0-.64-.762-1.81-1.089-2.284-.185-.27-.637-.27-.822 0z"/><path fill="#BBDEFB" d="M3 23a.5.5 0 0 1-.5-.5c.004-.152.212-.588.5-1.073.288.484.495.92.5 1.073a.5.5 0 0 1-.5.5z"/><path fill="#303C42" d="M24 9c0-2.757-2.243-5-5-5-.388 0-.767.057-1.139.144C16.741 1.654 14.25 0 11.5 0 7.88 0 4.888 2.737 4.549 6.282A3.998 3.998 0 0 0 2 10c0 .23.034.469.084.716A4.491 4.491 0 0 0 0 14.5C0 16.981 2.019 19 4.5 19H8v1.134l-1.415-.817a.5.5 0 0 0-.5.866L7.5 21l-1.415.817a.5.5 0 1 0 .5.866L8 21.866V23.5a.5.5 0 1 0 1 0v-1.634l1.415.817a.5.5 0 0 0 .5-.866L9.5 21l1.415-.817a.5.5 0 1 0-.5-.866L9 20.134V19h5.162c-.476.911-1.162 2.336-1.162 3 0 1.103.897 2 2 2s2-.897 2-2c0-.671-.702-2.123-1.179-3.032C17.598 18.802 19 17.32 19 15.5a3.46 3.46 0 0 0-.351-1.5H19c2.757 0 5-2.243 5-5z"/><path fill="#BBDEFB" d="M15 23c-.552 0-1-.449-1-1 0-.34.465-1.405 1-2.444.535 1.039 1 2.104 1 2.444 0 .551-.448 1-1 1z"/><path fill="#303C42" d="M23.231 19a.5.5 0 0 0-.682-.183l-.549.317V18.5a.5.5 0 1 0-1 0v.634l-.549-.317a.501.501 0 0 0-.5.866L20.5 20l-.549.317a.5.5 0 1 0 .5.866l.549-.317v.634a.5.5 0 1 0 1 0v-.634l.549.317a.5.5 0 0 0 .5-.866L22.5 20l.549-.317A.5.5 0 0 0 23.23 19z"/><path fill="#64B5F6" d="M3 10c0-1.654 1.346-3 3-3a.5.5 0 1 0 0-1c-.145 0-.281.028-.422.043C6.018 3.17 8.512 1 11.5 1c2.323 0 4.429 1.378 5.41 3.461a4.971 4.971 0 0 0-.7.39.5.5 0 1 0 .559.828A3.978 3.978 0 0 1 19 5c2.206 0 4 1.794 4 4s-1.794 4-4 4h-1.058a3.51 3.51 0 0 0-.994-.677C16.608 9.313 14.06 7 11 7a5.992 5.992 0 0 0-5.278 3.185A4.482 4.482 0 0 0 4.5 10c-.52 0-1.012.106-1.478.27C3.012 10.178 3 10.086 3 10z"/><path fill="#64B5F6" d="M15.5 18h-11C2.57 18 1 16.43 1 14.5S2.57 11 4.5 11c.804 0 1.56.265 2.187.767a.5.5 0 1 0 .625-.78 4.453 4.453 0 0 0-.656-.434A4.994 4.994 0 0 1 11 8c2.412 0 4.428 1.73 4.88 4.038-.126-.013-.25-.038-.38-.038a.5.5 0 1 0 0 1c1.378 0 2.5 1.122 2.5 2.5S16.878 18 15.5 18z"/><path d="M20.288 5.232c.447.645.712 1.425.712 2.268 0 2.206-1.794 4-4 4h-.223c.07.27.139.54.17.823.37.169.707.396.995.677H19c2.206 0 4-1.794 4-4 0-1.752-1.14-3.229-2.712-3.768zM16.938 13.462c.039.174.062.353.062.538 0 1.378-1.122 2.5-2.5 2.5h-11a3.47 3.47 0 01-2.3-.883C1.668 16.997 2.962 18 4.5 18h11c1.378 0 2.5-1.122 2.5-2.5 0-.842-.422-1.585-1.062-2.038z" opacity=".1"/><linearGradient id="a" x1="1.94" x2="23.932" y1="9.247" y2="19.502" gradientUnits="userSpaceOnUse"><stop offset="0" stop-color="#FFF" stop-opacity=".2"/><stop offset="1" stop-color="#FFF" stop-opacity="0"/></linearGradient><path fill="url(#a)" d="M2.589 20.216C2.262 20.69 1.5 21.86 1.5 22.5c0 .827.673 1.5 1.5 1.5s1.5-.673 1.5-1.5c0-.64-.762-1.81-1.089-2.284-.185-.27-.637-.27-.822 0zM24 9c0-2.757-2.243-5-5-5-.388 0-.767.057-1.139.144C16.741 1.654 14.25 0 11.5 0 7.88 0 4.888 2.737 4.549 6.282A3.998 3.998 0 0 0 2 10c0 .23.034.469.084.716A4.491 4.491 0 0 0 0 14.5C0 16.981 2.019 19 4.5 19H8v1.134l-1.415-.817a.5.5 0 0 0-.5.866L7.5 21l-1.415.817a.5.5 0 1 0 .5.866L8 21.866V23.5a.5.5 0 1 0 1 0v-1.634l1.415.817a.5.5 0 0 0 .5-.866L9.5 21l1.415-.817a.5.5 0 1 0-.5-.866L9 20.134V19h5.162c-.476.911-1.162 2.336-1.162 3 0 1.103.897 2 2 2s2-.897 2-2c0-.671-.702-2.123-1.179-3.032C17.598 18.802 19 17.32 19 15.5a3.46 3.46 0 0 0-.351-1.5H19c2.757 0 5-2.243 5-5zm-.769 10a.5.5 0 0 0-.682-.183l-.549.317V18.5a.5.5 0 1 0-1 0v.634l-.549-.317a.501.501 0 0 0-.5.866L20.5 20l-.549.317a.5.5 0 1 0 .5.866l.549-.317v.634a.5.5 0 1 0 1 0v-.634l.549.317a.5.5 0 0 0 .5-.866L22.5 20l.549-.317A.5.5 0 0 0 23.23 19z"/></svg>