<svg xmlns="http://www.w3.org/2000/svg" viewBox="0 0 24 24"><path fill="#303c42" d="M2.722 20.052a.497.497 0 0 0-.525.051L.641 21.292C.233 21.583 0 22.022 0 22.5c0 .827.673 1.5 1.5 1.5S3 23.327 3 22.5v-2a.5.5 0 0 0-.278-.448z"/><path fill="#bbdefb" d="M2 22.5a.5.5 0 0 1-1 0c0-.207.141-.337.225-.396l.017-.012.758-.58v.988z"/><path fill="#303c42" d="M12.722 20.052a.497.497 0 0 0-.525.051l-1.556 1.189c-.408.291-.641.73-.641 1.208 0 .827.673 1.5 1.5 1.5s1.5-.673 1.5-1.5v-2a.5.5 0 0 0-.278-.448z"/><path fill="#bbdefb" d="M12 22.5a.5.5 0 0 1-1 0c0-.207.141-.337.225-.396l.017-.012.758-.58v.988z"/><path fill="#64b5f6" d="M3 10c0-1.654 1.346-3 3-3a.5.5 0 0 0 0-1c-.145 0-.281.028-.422.043C6.017 3.171 8.512 1 11.5 1c2.323 0 4.429 1.378 5.41 3.461a4.999 4.999 0 0 0-.7.389.5.5 0 1 0 .559.829A4.004 4.004 0 0 1 23 9c0 2.206-1.794 4-4 4h-1.058a3.487 3.487 0 0 0-.994-.677C16.608 9.313 14.061 7 11 7a5.993 5.993 0 0 0-5.278 3.185A4.504 4.504 0 0 0 4.5 10c-.52 0-1.012.106-1.478.269C3.012 10.179 3 10.087 3 10z"/><path fill="#64b5f6" d="M15.5 18h-11C2.57 18 1 16.43 1 14.5S2.57 11 4.5 11c.804 0 1.56.265 2.187.767a.5.5 0 1 0 .625-.781 4.515 4.515 0 0 0-.656-.434A4.996 4.996 0 0 1 11 8c2.412 0 4.428 1.73 4.88 4.038-.126-.013-.25-.038-.38-.038a.5.5 0 0 0 0 1c1.378 0 2.5 1.122 2.5 2.5S16.878 18 15.5 18z"/><path d="M16.298 13.143a2.646 2.646 0 0 1 1.202 2.232C17.5 16.822 16.378 18 15 18h.5c1.378 0 2.5-1.122 2.5-2.5a2.494 2.494 0 0 0-1.702-2.357z" opacity=".1"/><path fill="#fff" d="M1.5 14.5c0-1.852 1.451-3.358 3.274-3.477C4.683 11.016 4.593 11 4.5 11 2.57 11 1 12.57 1 14.5S2.57 18 4.5 18H5c-1.93 0-3.5-1.57-3.5-3.5z" opacity=".2"/><path d="M19 5c-.119 0-.235.016-.352.026 2.084.135 3.743 1.856 3.743 3.974 0 2.122-1.666 3.847-3.757 3.975.004.009.01.016.015.025H19c2.206 0 4-1.794 4-4s-1.794-4-4-4z" opacity=".1"/><path fill="#fff" d="M11.5 8.5c1.261 0 2.407.481 3.285 1.263A4.943 4.943 0 0 0 11 8a4.995 4.995 0 0 0-4.344 2.553c.202.11.393.241.577.382A4.988 4.988 0 0 1 11.5 8.5z" opacity=".2"/><path fill="#303c42" d="M19 4c-.388 0-.767.057-1.139.144C16.74 1.654 14.25 0 11.5 0 7.88 0 4.888 2.737 4.549 6.282A3.998 3.998 0 0 0 2 10c0 .231.034.469.084.716A4.49 4.49 0 0 0 0 14.5C0 16.981 2.019 19 4.5 19h11c1.93 0 3.5-1.57 3.5-3.5 0-.539-.133-1.044-.351-1.5H19c2.757 0 5-2.243 5-5s-2.243-5-5-5z"/><path fill="#64b5f6" d="M15.5 18h-11C2.57 18 1 16.43 1 14.5S2.57 11 4.5 11c.804 0 1.56.265 2.187.767a.5.5 0 1 0 .625-.781 4.515 4.515 0 0 0-.656-.434A4.996 4.996 0 0 1 11 8c2.412 0 4.428 1.73 4.88 4.038-.126-.013-.25-.038-.38-.038a.5.5 0 0 0 0 1c1.378 0 2.5 1.122 2.5 2.5S16.878 18 15.5 18z"/><path d="M16.298 13.143a2.646 2.646 0 0 1 1.202 2.232C17.5 16.822 16.378 18 15 18h.5c1.378 0 2.5-1.122 2.5-2.5a2.494 2.494 0 0 0-1.702-2.357z" opacity=".1"/><path fill="#fff" d="M1.5 14.5c0-1.852 1.451-3.358 3.274-3.477C4.683 11.016 4.593 11 4.5 11 2.57 11 1 12.57 1 14.5S2.57 18 4.5 18H5c-1.93 0-3.5-1.57-3.5-3.5zm4.702-8.456A5.96 5.96 0 0 1 12 1.5c1.508 0 2.919.588 3.996 1.565A5.982 5.982 0 0 0 11.5 1C8.512 1 6.017 3.171 5.578 6.043 5.719 6.028 5.855 6 6 6c.072 0 .14.016.202.044zM11.5 8.5c1.261 0 2.407.481 3.285 1.263A4.943 4.943 0 0 0 11 8a4.995 4.995 0 0 0-4.344 2.553c.202.11.393.241.577.382A4.988 4.988 0 0 1 11.5 8.5z" opacity=".2"/><path fill="#64b5f6" d="M3 10c0-1.654 1.346-3 3-3a.5.5 0 0 0 0-1c-.145 0-.281.028-.422.043C6.017 3.171 8.512 1 11.5 1c2.323 0 4.429 1.378 5.41 3.461a4.999 4.999 0 0 0-.7.389.5.5 0 1 0 .559.829A4.004 4.004 0 0 1 23 9c0 2.206-1.794 4-4 4h-1.058a3.487 3.487 0 0 0-.994-.677C16.608 9.313 14.061 7 11 7a5.993 5.993 0 0 0-5.278 3.185A4.504 4.504 0 0 0 4.5 10c-.52 0-1.012.106-1.478.269C3.012 10.179 3 10.087 3 10z"/><path d="M19 5c-.119 0-.235.016-.352.026 2.084.135 3.743 1.856 3.743 3.974 0 2.122-1.666 3.847-3.757 3.975.004.009.01.016.015.025H19c2.206 0 4-1.794 4-4s-1.794-4-4-4z" opacity=".1"/><path fill="#fff" d="M6.202 6.044A5.96 5.96 0 0 1 12 1.5c1.508 0 2.919.588 3.996 1.565A5.982 5.982 0 0 0 11.5 1C8.512 1 6.017 3.171 5.578 6.043 5.719 6.028 5.855 6 6 6c.072 0 .14.016.202.044z" opacity=".2"/><path fill="#303c42" d="M21.722 19.052a.497.497 0 0 0-.525.051l-1.555 1.189A1.47 1.47 0 0 0 19 21.5c0 .827.673 1.5 1.5 1.5s1.5-.673 1.5-1.5v-2a.5.5 0 0 0-.278-.448z"/><path fill="#bbdefb" d="M21 21.5a.5.5 0 0 1-1 0 .49.49 0 0 1 .242-.408l.758-.58v.988z"/><path fill="#303c42" d="M4.5 24a.5.5 0 0 1-.49-.598l1.5-7.5a.498.498 0 0 1 .714-.349l1.358.679.421-3.787a.502.502 0 0 1 .656-.419l3 1a.498.498 0 0 1 .319.621l-2 6.5a.5.5 0 0 1-.701.301l-1.605-.803-2.755 4.133A.504.504 0 0 1 4.5 24zm11-2c-.827 0-1.5-.673-1.5-1.5 0-.478.233-.917.641-1.208l1.556-1.189A.5.5 0 0 1 17 18.5v2c0 .827-.673 1.5-1.5 1.5z"/><path fill="#bbdefb" d="m16 19.512-.759.58-.017.012A.494.494 0 0 0 15 20.5a.5.5 0 0 0 1 0v-.988z"/><path fill="#303c42" d="M14.937 19.695h.01-.01z"/><path fill="#ffca28" d="m6.362 16.74-.876 4.38 1.598-2.397a.501.501 0 0 1 .64-.17l1.472.736 1.683-5.469-1.95-.65-.432 3.885a.5.5 0 0 1-.72.392l-1.415-.707z"/><path d="m9.93 13.503-1.307 5.5.573.286 1.683-5.469zM7.36 18.336c-.189-.123-.418-.043-.535.184l-1.339 2.6 1.598-2.397a.496.496 0 0 1 .584-.186l-.308-.201z" opacity=".1"/><linearGradient id="a" x1="1.806" x2="23.104" y1="9.534" y2="19.465" gradientUnits="userSpaceOnUse"><stop offset="0" stop-color="#fff" stop-opacity=".2"/><stop offset="1" stop-color="#fff" stop-opacity="0"/></linearGradient><path fill="url(#a)" d="M12.722 20.052a.497.497 0 0 0-.525.051l-1.556 1.189c-.408.291-.641.73-.641 1.208 0 .827.673 1.5 1.5 1.5s1.5-.673 1.5-1.5v-2a.5.5 0 0 0-.278-.448zm-10 0a.497.497 0 0 0-.525.051L.641 21.292C.233 21.583 0 22.022 0 22.5c0 .827.673 1.5 1.5 1.5S3 23.327 3 22.5v-2a.5.5 0 0 0-.278-.448zM19 4c-.388 0-.767.057-1.139.144C16.74 1.654 14.25 0 11.5 0 7.88 0 4.888 2.737 4.549 6.282A3.998 3.998 0 0 0 2 10c0 .231.034.469.084.716A4.49 4.49 0 0 0 0 14.5C0 16.981 2.019 19 4.5 19h.39l-.88 4.402a.5.5 0 0 0 .906.375l2.755-4.133 1.605.803a.498.498 0 0 0 .701-.301L10.33 19h4.692l-.382.292c-.407.291-.64.73-.64 1.208 0 .827.673 1.5 1.5 1.5s1.5-.673 1.5-1.5v-1.851a3.495 3.495 0 0 0 2-3.149c0-.539-.133-1.044-.351-1.5H19c2.757 0 5-2.243 5-5s-2.243-5-5-5zm2.722 15.052a.497.497 0 0 0-.525.051l-1.555 1.189A1.47 1.47 0 0 0 19 21.5c0 .827.673 1.5 1.5 1.5s1.5-.673 1.5-1.5v-2a.5.5 0 0 0-.278-.448z"/></svg>