<svg xmlns="http://www.w3.org/2000/svg" viewBox="0 0 64 64"><g data-name="Filled outline"><rect width="31" height="58" x="17" y="3" fill="#565d75" rx="2.148"/><path fill="#33374c" d="M17 5.148V11h31V5.148A2.148 2.148 0 0 0 45.852 3h-26.7A2.148 2.148 0 0 0 17 5.148zm31 53.704V56H17v2.852A2.148 2.148 0 0 0 19.148 61h26.7A2.148 2.148 0 0 0 48 58.852z"/><circle cx="38" cy="25" r="5" fill="#fc0"/><path fill="#1cc7ff" d="M38.322 27.4a5.578 5.578 0 0 0-5.822-5.46 5.578 5.578 0 0 0-5.822 5.46A5.492 5.492 0 0 0 22 32.647 5.609 5.609 0 0 0 27.833 38h9.334A5.609 5.609 0 0 0 43 32.647a5.492 5.492 0 0 0-4.678-5.247Z"/><g fill="#1e120b"><path d="M45.852 2h-26.7A3.151 3.151 0 0 0 16 5.148v53.7A3.151 3.151 0 0 0 19.148 62h26.7A3.151 3.151 0 0 0 49 58.852V5.148A3.151 3.151 0 0 0 45.852 2ZM47 58.852A1.15 1.15 0 0 1 45.852 60h-26.7A1.15 1.15 0 0 1 18 58.852V57h29ZM47 55H18V12h29Zm0-45H18V5.148A1.15 1.15 0 0 1 19.148 4h26.7A1.15 1.15 0 0 1 47 5.148Z"/><circle cx="23" cy="44" r="1"/><path d="M34 6h-7a1 1 0 0 0 0 2h7a1 1 0 0 0 0-2Z"/><circle cx="38" cy="7" r="1"/><path d="M27.833 39h9.334A6.613 6.613 0 0 0 44 32.647a6.05 6.05 0 0 0-1.4-3.836A5.933 5.933 0 0 0 44 25a5.988 5.988 0 0 0-10.474-3.978 7.117 7.117 0 0 0-6.114 2.029 6.048 6.048 0 0 0-1.7 3.558A6.431 6.431 0 0 0 21 32.647 6.613 6.613 0 0 0 27.833 39zM38 21a4 4 0 0 1 4 4 3.938 3.938 0 0 1-.889 2.47 6.993 6.993 0 0 0-1.821-.861 6.324 6.324 0 0 0-3.548-4.9A3.976 3.976 0 0 1 38 21zm-11.141 7.385a1 1 0 0 0 .819-1.017c-.107-2.512 2.348-4.479 4.818-4.427 2.47-.056 4.934 1.913 4.826 4.427a1 1 0 0 0 .819 1.017A4.5 4.5 0 0 1 42 32.647 4.617 4.617 0 0 1 37.167 37h-9.334A4.617 4.617 0 0 1 23 32.647a4.5 4.5 0 0 1 3.859-4.262zM41 43H27a1 1 0 0 0 0 2h14a1 1 0 0 0 0-2z"/><circle cx="23" cy="48" r="1"/><path d="M41 47H27a1 1 0 0 0 0 2h14a1 1 0 0 0 0-2Z"/></g></g></svg>